<svg version="1.1" id="Layer_1" xmlns="http://www.w3.org/2000/svg" xmlns:xlink="http://www.w3.org/1999/xlink" x="0px" y="0px"
	 width="100%" viewBox="0 0 522 237" enable-background="new 0 0 522 237" xml:space="preserve">
<path fill="#5047CE" opacity="1.000000" stroke="none" 
	d="
M59.468620,238.000000 
	C58.039345,237.334137 57.130779,236.184494 56.110264,236.074615 
	C39.622669,234.299316 23.119133,232.672562 6.626120,230.946121 
	C5.528696,230.831253 4.486697,230.186905 4.231155,230.091629 
	C8.908455,224.830673 14.794327,220.008316 18.343523,213.841202 
	C25.566948,201.289719 27.312904,188.037354 18.991819,174.822571 
	C10.399024,161.176300 5.891907,146.190079 3.876674,130.178711 
	C0.967511,107.064888 5.088733,85.322151 15.687444,64.882042 
	C28.948675,39.307133 48.879364,20.948761 76.196945,10.841473 
	C86.898521,6.881972 97.741478,4.697992 109.148712,3.850142 
	C138.950348,1.635115 165.313736,10.568151 188.066223,28.950535 
	C208.416870,45.392403 221.559219,67.037476 227.016891,92.983475 
	C232.063034,116.972961 229.770584,140.197037 219.764603,162.559174 
	C208.605438,187.498489 190.557800,206.057327 166.220566,218.237228 
	C150.492004,226.108765 133.524475,230.464478 116.164230,232.918839 
	C105.600227,234.412369 94.907372,234.988327 84.279457,236.047333 
	C83.404770,236.134491 82.584404,236.766754 81.869400,237.572876 
	C74.645752,238.000000 67.291496,238.000000 59.468620,238.000000 
M74.383316,51.830170 
	C48.772903,56.473412 26.864845,80.457504 28.997843,111.646004 
	C30.820873,138.302155 53.944996,161.519150 81.396873,162.762848 
	C104.544754,163.811584 122.639450,154.082291 133.874329,133.852737 
	C144.902466,113.995461 143.885498,93.676903 130.862640,75.006836 
	C117.470680,55.807636 98.431053,48.380424 74.383316,51.830170 
M160.522095,73.993332 
	C161.930191,76.822403 163.473892,79.593071 164.722061,82.491028 
	C169.213104,92.918182 173.117599,103.607857 170.900467,115.160370 
	C169.854385,120.611023 167.801849,126.035004 165.274658,130.997070 
	C161.175018,139.046616 167.394318,148.524734 173.478928,151.587021 
	C179.464828,154.599655 190.281281,151.244492 193.426575,144.606110 
	C199.052017,132.733261 201.704895,120.024849 200.623856,106.877647 
	C199.087189,88.189278 190.574493,72.182205 179.441727,57.671124 
	C175.886337,53.036823 170.246063,49.752205 165.055984,46.709286 
	C161.572403,44.666882 157.637573,45.909996 154.580322,48.931160 
	C151.672821,51.804382 151.506866,55.144646 153.042068,58.575317 
	C155.273239,63.561295 157.772995,68.427086 160.522095,73.993332 
M149.959686,181.423416 
	C149.438843,172.123993 142.893890,164.779236 134.493973,164.067795 
	C126.246346,163.369247 118.967407,168.806046 116.919739,177.194382 
	C114.838333,185.720886 118.889275,194.037888 126.687950,197.249588 
	C137.582336,201.736191 147.593109,195.284698 149.959686,181.423416 
z"/>
<path fill="#544EBF" opacity="1.000000" stroke="none" 
	d="
M351.000000,202.650085 
	C351.000000,209.204742 351.000000,215.330872 351.000000,221.724518 
	C346.626801,221.724518 342.696350,221.724518 338.384827,221.724518 
	C338.384827,201.372375 338.384827,180.992599 338.384827,159.850021 
	C342.369476,161.370163 347.451752,157.222626 350.923126,163.440887 
	C356.888702,159.113556 364.178802,156.887802 371.527008,160.478439 
	C375.587158,162.462418 379.331848,165.984024 382.027802,169.680969 
	C387.539337,177.238983 386.117462,194.588730 377.673767,200.971283 
	C369.980591,206.786469 360.154785,206.633469 351.245178,199.254639 
	C351.145782,200.457458 351.072876,201.339508 351.000000,202.650085 
M351.000031,179.767517 
	C351.000610,181.258133 350.932343,182.752472 351.013153,184.238724 
	C351.452240,192.313080 360.881134,197.306961 367.424774,192.767929 
	C371.643707,189.841431 372.272766,185.282593 372.032501,180.469009 
	C371.774200,175.293076 366.705719,169.765091 361.481628,169.199921 
	C356.855896,168.699463 351.945251,173.246445 351.000031,179.767517 
z"/>
<path fill="#534FBF" opacity="1.000000" stroke="none" 
	d="
M398.367310,162.142517 
	C407.238129,157.147339 412.425903,157.670898 423.882385,164.761826 
	C423.882385,157.430359 423.882385,150.453156 423.882385,143.247498 
	C428.098175,143.247498 431.696625,143.247498 436.000122,143.247498 
	C436.000122,145.874069 436.000092,148.468506 436.000092,151.062943 
	C436.000092,161.392822 435.862915,171.725388 436.064606,182.051315 
	C436.150757,186.462036 434.940094,190.947784 438.584259,195.170822 
	C440.134521,196.967361 438.843109,201.216080 438.843109,204.309021 
	C430.800873,206.004166 427.772491,204.881775 425.529846,199.102829 
	C419.659851,204.624741 412.754730,206.385773 405.095398,204.535095 
	C390.799286,201.080780 385.536163,183.908966 391.152374,171.878098 
	C392.777802,168.396118 395.738892,165.537643 398.367310,162.142517 
M403.065826,187.066467 
	C406.528748,193.646393 411.411560,196.289764 416.318634,194.241013 
	C425.576385,190.375824 427.454498,179.155945 419.964844,172.458633 
	C415.429749,168.403336 408.291504,168.673630 405.388947,173.335876 
	C402.962860,177.232803 401.273468,181.505463 403.065826,187.066467 
z"/>
<path fill="#534FBF" opacity="1.000000" stroke="none" 
	d="
M284.872986,190.982666 
	C280.195343,199.747040 272.677734,203.243240 263.432587,204.031265 
	C253.859848,204.847183 245.522842,202.610641 238.809418,195.331146 
	C223.010223,178.199799 229.506577,150.437180 252.387146,144.283707 
	C263.454071,141.307373 275.750610,145.404922 282.561859,153.929062 
	C284.446869,156.288101 284.214661,157.422363 281.762970,158.813110 
	C279.250916,160.238068 276.885986,161.922455 274.511993,163.457550 
	C268.358276,155.339462 260.996979,151.909653 251.878113,157.133728 
	C245.417480,160.834930 243.156250,167.727005 243.428513,174.460983 
	C243.738770,182.134766 246.669128,189.255051 254.913208,192.412399 
	C260.243896,194.453964 268.319305,192.661346 271.895935,187.833740 
	C274.342834,184.530945 276.395508,184.625290 279.252167,186.750336 
	C281.074188,188.105728 282.992126,189.332169 284.872986,190.982666 
z"/>
<path fill="#534FBF" opacity="1.000000" stroke="none" 
	d="
M487.999451,200.946869 
	C487.507446,204.787933 483.771637,206.470490 479.482880,204.664871 
	C477.449615,203.808838 475.916229,201.765518 473.827393,199.978714 
	C468.370148,204.954880 460.900330,206.363159 453.146973,204.426727 
	C446.727875,202.823517 442.484802,196.103745 443.010193,190.272461 
	C443.645264,183.224167 448.920197,178.022476 456.709045,177.074661 
	C459.333740,176.755264 462.029358,176.953873 464.690247,177.015198 
	C467.268738,177.074615 469.844269,177.261841 472.420776,177.392914 
	C472.585815,166.747421 464.557037,165.049393 449.222626,173.015869 
	C447.920685,170.594940 446.613617,168.164490 444.629639,164.475357 
	C449.424774,162.669449 453.859833,160.266449 458.579590,159.381165 
	C467.187195,157.766571 478.607208,159.313248 482.726410,167.308075 
	C483.880737,169.548477 484.716827,172.153030 484.901550,174.649536 
	C485.244507,179.283890 484.613831,184.003998 485.117676,188.608612 
	C485.557159,192.624924 487.000153,196.531403 487.999451,200.946869 
M456.109436,192.460800 
	C459.633118,197.406799 467.651154,197.143265 471.505249,191.954803 
	C474.174622,188.361252 473.343323,185.611053 468.940369,184.550888 
	C466.594208,183.985962 464.023407,183.817673 461.629791,184.103973 
	C457.375244,184.612839 455.187714,187.797607 456.109436,192.460800 
z"/>
<path fill="#534FBF" opacity="1.000000" stroke="none" 
	d="
M496.009277,175.128342 
	C496.009277,173.002838 496.009277,171.359146 496.009277,169.416565 
	C494.369049,169.151978 492.970428,168.926346 491.290344,168.655319 
	C491.290344,166.048294 491.290344,163.447083 491.290344,160.499893 
	C492.633484,160.221832 494.155579,159.906738 496.022247,159.520294 
	C496.022247,155.129898 496.022247,150.863510 496.022247,146.302170 
	C500.326416,146.302170 504.255554,146.302170 508.755676,146.302170 
	C508.755676,150.551453 508.755676,154.939575 508.755676,159.780579 
	C512.018433,159.926147 514.746033,160.047852 517.728027,160.180893 
	C517.728027,163.028534 517.728027,165.628433 517.728027,168.787994 
	C515.078125,168.787994 512.356934,168.787994 509.016418,168.787994 
	C509.016418,176.257721 508.878113,183.189926 509.079559,190.112228 
	C509.169250,193.195847 511.342773,194.360153 514.293152,193.864151 
	C515.874878,193.598236 517.422363,193.128616 519.371643,192.657578 
	C520.179321,195.932755 520.896423,198.840454 521.636719,201.842407 
	C516.216919,205.179703 510.334808,205.483582 504.438385,204.901413 
	C499.761475,204.439636 496.136017,198.875092 496.030060,192.582565 
	C495.934845,186.926590 496.009552,181.267746 496.009277,175.128342 
z"/>
<path fill="#534FBF" opacity="1.000000" stroke="none" 
	d="
M290.002686,192.697693 
	C290.002716,176.080124 290.002716,159.928650 290.002716,143.388824 
	C294.272980,143.388824 298.319946,143.388824 303.000000,143.388824 
	C303.000000,148.633759 302.999939,153.904373 303.000031,159.174973 
	C303.000183,169.339478 302.961395,179.504211 303.021149,189.668365 
	C303.042847,193.362228 304.037201,195.797104 308.726776,194.347763 
	C309.751129,194.031158 312.056061,195.757919 312.763214,197.081970 
	C313.532318,198.522018 313.126526,200.589523 313.320984,203.866562 
	C308.297882,204.182007 302.962372,205.177933 297.779541,204.656372 
	C292.615784,204.136734 290.525024,200.220398 290.002686,192.697693 
z"/>
<path fill="#544EBF" opacity="1.000000" stroke="none" 
	d="
M317.015503,162.267151 
	C318.650574,161.195023 320.235260,160.277740 321.906616,160.075165 
	C324.341278,159.780075 326.838257,159.999374 329.648529,159.999374 
	C329.648529,174.668381 329.648529,189.021637 329.648529,203.689117 
	C325.567291,203.689117 321.529694,203.689117 317.003845,203.689117 
	C317.003845,189.907883 317.003845,176.324677 317.015503,162.267151 
z"/>
<path fill="#544EBF" opacity="1.000000" stroke="none" 
	d="
M319.249023,143.015747 
	C322.987335,143.003769 326.254822,143.003769 329.747131,143.003769 
	C329.747131,146.758179 329.747131,150.008469 329.747131,153.631073 
	C325.708313,153.631073 321.678680,153.631073 316.316986,153.631073 
	C317.172485,149.945450 317.975342,146.486603 319.249023,143.015747 
z"/>
<path fill="#020203" opacity="1.000000" stroke="none" 
	d="
M74.814957,51.746769 
	C98.431053,48.380424 117.470680,55.807636 130.862640,75.006836 
	C143.885498,93.676903 144.902466,113.995461 133.874329,133.852737 
	C122.639450,154.082291 104.544754,163.811584 81.396873,162.762848 
	C53.944996,161.519150 30.820873,138.302155 28.997843,111.646004 
	C26.864845,80.457504 48.772903,56.473412 74.814957,51.746769 
M49.801804,84.364891 
	C45.314938,91.455101 43.190304,99.296700 43.343430,107.583313 
	C43.949932,140.404617 78.589539,158.730362 105.524658,143.178223 
	C120.226707,134.689377 127.600471,121.606361 126.707001,104.828041 
	C125.743813,86.740440 116.132027,73.999794 99.177193,67.461334 
	C83.135544,61.275028 62.123863,65.795982 49.801804,84.364891 
z"/>
<path fill="#86A4D7" opacity="1.000000" stroke="none" 
	d="
M160.340164,73.668732 
	C157.772995,68.427086 155.273239,63.561295 153.042068,58.575317 
	C151.506866,55.144646 151.672821,51.804382 154.580322,48.931160 
	C157.637573,45.909996 161.572403,44.666882 165.055984,46.709286 
	C170.246063,49.752205 175.886337,53.036823 179.441727,57.671124 
	C190.574493,72.182205 199.087189,88.189278 200.623856,106.877647 
	C201.704895,120.024849 199.052017,132.733261 193.426575,144.606110 
	C190.281281,151.244492 179.464828,154.599655 173.478928,151.587021 
	C167.394318,148.524734 161.175018,139.046616 165.274658,130.997070 
	C167.801849,126.035004 169.854385,120.611023 170.900467,115.160370 
	C173.117599,103.607857 169.213104,92.918182 164.722061,82.491028 
	C163.473892,79.593071 161.930191,76.822403 160.340164,73.668732 
z"/>
<path fill="#86A3D7" opacity="1.000000" stroke="none" 
	d="
M149.951141,181.843201 
	C147.593109,195.284698 137.582336,201.736191 126.687950,197.249588 
	C118.889275,194.037888 114.838333,185.720886 116.919739,177.194382 
	C118.967407,168.806046 126.246346,163.369247 134.493973,164.067795 
	C142.893890,164.779236 149.438843,172.123993 149.951141,181.843201 
z"/>
<path fill="#FAFAFA" opacity="1.000000" stroke="none" 
	d="
M49.931881,84.024612 
	C62.123863,65.795982 83.135544,61.275028 99.177193,67.461334 
	C116.132027,73.999794 125.743813,86.740440 126.707001,104.828041 
	C127.600471,121.606361 120.226707,134.689377 105.524658,143.178223 
	C78.589539,158.730362 43.949932,140.404617 43.343430,107.583313 
	C43.190304,99.296700 45.314938,91.455101 49.931881,84.024612 
M85.447884,78.939323 
	C81.619797,79.414391 84.314957,81.728355 84.558960,82.913048 
	C86.702133,93.318832 77.194778,102.245628 67.032143,99.046349 
	C64.494606,98.247520 62.228901,96.585190 59.842804,95.322144 
	C50.601551,112.711975 64.284157,136.268402 86.741859,134.681946 
	C101.894730,133.611511 112.897583,121.534439 112.943840,107.167526 
	C112.992279,92.122353 101.956093,80.412483 85.447884,78.939323 
z"/>
<path fill="#020202" opacity="1.000000" stroke="none" 
	d="
M85.894287,78.939880 
	C101.956093,80.412483 112.992279,92.122353 112.943840,107.167526 
	C112.897583,121.534439 101.894730,133.611511 86.741859,134.681946 
	C64.284157,136.268402 50.601551,112.711975 59.842804,95.322144 
	C62.228901,96.585190 64.494606,98.247520 67.032143,99.046349 
	C77.194778,102.245628 86.702133,93.318832 84.558960,82.913048 
	C84.314957,81.728355 81.619797,79.414391 85.894287,78.939880 
z"/>
</svg>