<svg 
	version="1.1" 
	id="Layer_1" 
	xmlns="http://www.w3.org/2000/svg" xmlns:xlink="http://www.w3.org/1999/xlink" 
	x="0px" y="0px"
	width="100%" viewBox="0 0 463 477" xml:space="preserve"
	preserveAspectRatio="xMidYMid meet"
	>
<path fill="#5047CE" opacity="1.000000" stroke="none" 
	d="
M168.000000,478.000000 
	C150.312439,478.000000 132.624878,478.000000 114.599350,477.572235 
	C113.415901,476.765656 112.584396,476.094421 111.722778,476.053253 
	C103.124802,475.642639 94.519188,475.391846 85.921387,474.978210 
	C80.981049,474.740540 76.021690,474.515686 71.122086,473.886536 
	C56.668354,472.030518 42.224670,470.080902 27.807909,467.958374 
	C19.524948,466.738892 11.301803,465.113129 1.638802,463.423157 
	C3.913735,461.903290 4.910016,461.175629 5.963518,460.543304 
	C18.851402,452.808258 29.414295,442.595764 35.784088,429.001007 
	C39.823456,420.379883 42.742500,411.030273 44.696835,401.700043 
	C46.270374,394.187775 46.260242,386.177094 45.789429,378.458496 
	C45.442188,372.765686 44.137444,366.737213 41.643593,361.650452 
	C36.265057,350.679718 29.374908,340.452484 23.948763,329.502106 
	C11.602211,304.585876 5.208684,277.845062 3.248875,250.311295 
	C1.853608,230.708908 2.300766,210.899826 6.072208,191.434631 
	C12.243427,159.583649 24.346493,130.033417 42.531940,103.233383 
	C55.458569,84.183319 71.235123,67.558067 89.301758,53.113880 
	C106.183136,39.617298 124.628281,28.722181 144.441772,20.416143 
	C169.049698,10.100224 195.024490,4.538404 221.613907,3.248547 
	C235.915359,2.554783 250.453720,3.467360 264.676910,5.284941 
	C281.650604,7.454014 298.240051,11.748906 314.391907,17.867107 
	C343.842621,29.022835 369.741089,45.681046 392.471924,67.206810 
	C400.828766,75.120605 408.331268,84.054047 415.460205,93.122398 
	C430.024506,111.648933 441.056183,132.238342 449.116364,154.390366 
	C456.434235,174.502213 461.236877,195.143295 462.087616,216.617508 
	C462.120026,217.435638 463.335724,218.206894 464.000000,219.000000 
	C464.000000,229.687561 464.000000,240.375122 463.583160,251.378784 
	C462.780426,252.536163 462.168884,253.345383 462.044098,254.223770 
	C460.985931,261.672516 460.278046,269.179901 458.974396,276.583313 
	C453.803497,305.948395 442.600128,332.964203 426.515778,357.975464 
	C412.972229,379.035797 396.175537,397.129639 376.715088,412.920410 
	C356.140717,429.615051 333.420776,442.563782 308.344452,450.585938 
	C285.885956,457.770691 262.863556,463.295593 239.900635,468.756836 
	C228.641403,471.434601 216.993073,472.700714 205.446899,473.884460 
	C193.970688,475.061066 182.398651,475.288269 170.878922,476.081177 
	C169.879990,476.149902 168.957825,477.333984 168.000000,478.000000 
M125.467636,107.916809 
	C117.421463,112.527061 108.692909,116.259506 101.443558,121.894806 
	C63.829090,151.134583 48.701828,189.863571 57.805439,236.436111 
	C67.019943,283.575897 103.221596,317.578125 150.751511,325.576721 
	C185.335480,331.396698 216.770660,322.776672 243.229477,299.788605 
	C274.356873,272.744385 287.771088,237.922134 281.797943,197.040237 
	C275.558380,154.334930 251.503281,124.276237 211.736252,107.613434 
	C183.462570,95.766464 154.698303,96.492828 125.467636,107.916809 
M396.783112,273.154541 
	C397.210571,271.550171 397.579712,269.927643 398.074188,268.344208 
	C406.026123,242.880371 406.642914,217.153305 400.883270,191.191772 
	C396.764557,172.626770 388.617889,155.785767 379.050201,139.503036 
	C371.275360,126.271423 363.065338,113.329369 351.920593,102.687469 
	C343.761780,94.896790 334.674133,88.598274 322.287994,89.879791 
	C313.346954,90.804863 304.807556,99.193878 306.299103,107.551659 
	C307.562347,114.629883 309.573120,121.962372 313.038910,128.188202 
	C324.059418,147.984924 334.894592,167.793777 341.056305,189.760498 
	C345.502045,205.609726 347.791443,221.711533 342.745056,237.752304 
	C339.866119,246.903305 335.424927,255.556824 331.803741,264.481628 
	C325.371063,280.335724 337.951050,302.985901 354.828369,306.052460 
	C368.216705,308.485138 386.034882,299.268219 391.493958,286.923584 
	C393.372864,282.674835 394.839722,278.243866 396.783112,273.154541 
M245.039734,391.506653 
	C251.083237,396.995911 258.377411,399.704132 266.350861,399.914886 
	C286.996857,400.460663 302.863220,382.280121 300.984619,360.618195 
	C298.969696,337.383575 273.322479,322.867188 252.525497,333.190155 
	C230.175797,344.283905 226.243546,372.700653 245.039734,391.506653 
z"/>
<path fill="#010102" opacity="1.000000" stroke="none" 
	d="
M125.824013,107.772964 
	C154.698303,96.492828 183.462570,95.766464 211.736252,107.613434 
	C251.503281,124.276237 275.558380,154.334930 281.797943,197.040237 
	C287.771088,237.922134 274.356873,272.744385 243.229477,299.788605 
	C216.770660,322.776672 185.335480,331.396698 150.751511,325.576721 
	C103.221596,317.578125 67.019943,283.575897 57.805439,236.436111 
	C48.701828,189.863571 63.829090,151.134583 101.443558,121.894806 
	C108.692909,116.259506 117.421463,112.527061 125.824013,107.772964 
M105.685280,156.196198 
	C94.303566,169.804855 87.469734,185.331146 85.396172,203.025528 
	C82.197067,230.324722 89.561501,254.197067 108.894302,273.777710 
	C138.460846,303.723328 185.065903,307.013214 219.671082,282.091003 
	C265.270233,249.251068 266.491852,180.501205 222.087875,146.080383 
	C186.252640,118.301849 137.485657,122.334702 105.685280,156.196198 
z"/>
<path fill="#87A5D7" opacity="1.000000" stroke="none" 
	d="
M396.638947,273.525330 
	C394.839722,278.243866 393.372864,282.674835 391.493958,286.923584 
	C386.034882,299.268219 368.216705,308.485138 354.828369,306.052460 
	C337.951050,302.985901 325.371063,280.335724 331.803741,264.481628 
	C335.424927,255.556824 339.866119,246.903305 342.745056,237.752304 
	C347.791443,221.711533 345.502045,205.609726 341.056305,189.760498 
	C334.894592,167.793777 324.059418,147.984924 313.038910,128.188202 
	C309.573120,121.962372 307.562347,114.629883 306.299103,107.551659 
	C304.807556,99.193878 313.346954,90.804863 322.287994,89.879791 
	C334.674133,88.598274 343.761780,94.896790 351.920593,102.687469 
	C363.065338,113.329369 371.275360,126.271423 379.050201,139.503036 
	C388.617889,155.785767 396.764557,172.626770 400.883270,191.191772 
	C406.642914,217.153305 406.026123,242.880371 398.074188,268.344208 
	C397.579712,269.927643 397.210571,271.550171 396.638947,273.525330 
z"/>
<path fill="#87A4D7" opacity="1.000000" stroke="none" 
	d="
M244.782867,391.253082 
	C226.243546,372.700653 230.175797,344.283905 252.525497,333.190155 
	C273.322479,322.867188 298.969696,337.383575 300.984619,360.618195 
	C302.863220,382.280121 286.996857,400.460663 266.350861,399.914886 
	C258.377411,399.704132 251.083237,396.995911 244.782867,391.253082 
z"/>
<path fill="#FCFCFD" opacity="1.000000" stroke="none" 
	d="
M105.922867,155.931671 
	C137.485657,122.334702 186.252640,118.301849 222.087875,146.080383 
	C266.491852,180.501205 265.270233,249.251068 219.671082,282.091003 
	C185.065903,307.013214 138.460846,303.723328 108.894302,273.777710 
	C89.561501,254.197067 82.197067,230.324722 85.396172,203.025528 
	C87.469734,185.331146 94.303566,169.804855 105.922867,155.931671 
M223.177109,231.530823 
	C229.890671,209.028610 225.480713,189.128418 208.817734,172.404022 
	C197.097595,160.640701 182.656921,155.829132 165.884598,156.400787 
	C171.562088,173.012177 168.735062,185.025803 157.618668,193.254578 
	C151.465683,197.809219 144.646347,199.591965 136.986954,198.563965 
	C129.436630,197.550583 123.598930,193.571060 118.293762,187.993484 
	C108.804794,208.776199 109.963058,228.405869 123.070015,246.462204 
	C136.528824,265.003265 155.376770,272.887299 178.016373,269.444458 
	C200.075989,266.089813 214.806107,252.915314 223.177109,231.530823 
z"/>
<path fill="#010101" opacity="1.000000" stroke="none" 
	d="
M223.096680,231.917999 
	C214.806107,252.915314 200.075989,266.089813 178.016373,269.444458 
	C155.376770,272.887299 136.528824,265.003265 123.070015,246.462204 
	C109.963058,228.405869 108.804794,208.776199 118.293762,187.993484 
	C123.598930,193.571060 129.436630,197.550583 136.986954,198.563965 
	C144.646347,199.591965 151.465683,197.809219 157.618668,193.254578 
	C168.735062,185.025803 171.562088,173.012177 165.884598,156.400787 
	C182.656921,155.829132 197.097595,160.640701 208.817734,172.404022 
	C225.480713,189.128418 229.890671,209.028610 223.096680,231.917999 
z"/>
</svg>