<?xml version="1.0" encoding="UTF-8"?>
<svg xmlns="http://www.w3.org/2000/svg" xmlns:xlink="http://www.w3.org/1999/xlink" width="39px" height="40px" viewBox="0 0 39 40" version="1.1">
<g id="surface1">
<path style=" stroke:none;fill-rule:nonzero;fill:rgb(31.372549%,27.843137%,80.784314%);fill-opacity:1;" d="M 14.152344 40.082031 C 12.660156 40.082031 11.171875 40.082031 9.652344 40.046875 C 9.554688 39.980469 9.484375 39.925781 9.410156 39.921875 C 8.6875 39.886719 7.960938 39.863281 7.238281 39.832031 C 6.820312 39.808594 6.402344 39.792969 5.992188 39.738281 C 4.773438 39.582031 3.558594 39.417969 2.34375 39.242188 C 1.644531 39.140625 0.953125 39.003906 0.136719 38.863281 C 0.328125 38.734375 0.414062 38.671875 0.503906 38.621094 C 1.589844 37.972656 2.476562 37.113281 3.015625 35.976562 C 3.355469 35.253906 3.601562 34.46875 3.765625 33.683594 C 3.898438 33.054688 3.898438 32.382812 3.855469 31.738281 C 3.828125 31.257812 3.71875 30.753906 3.507812 30.328125 C 3.054688 29.40625 2.472656 28.550781 2.015625 27.632812 C 0.976562 25.542969 0.4375 23.300781 0.273438 20.992188 C 0.15625 19.347656 0.195312 17.683594 0.511719 16.054688 C 1.03125 13.382812 2.050781 10.902344 3.582031 8.65625 C 4.671875 7.058594 6 5.664062 7.523438 4.453125 C 8.945312 3.320312 10.496094 2.410156 12.167969 1.710938 C 14.238281 0.847656 16.425781 0.378906 18.667969 0.273438 C 19.871094 0.214844 21.097656 0.289062 22.292969 0.441406 C 23.722656 0.625 25.121094 0.984375 26.480469 1.5 C 28.964844 2.433594 31.144531 3.832031 33.058594 5.636719 C 33.761719 6.300781 34.394531 7.046875 34.996094 7.808594 C 36.222656 9.363281 37.152344 11.089844 37.832031 12.945312 C 38.445312 14.632812 38.851562 16.363281 38.921875 18.164062 C 38.925781 18.234375 39.027344 18.296875 39.085938 18.363281 C 39.085938 19.261719 39.085938 20.15625 39.050781 21.078125 C 38.980469 21.175781 38.929688 21.246094 38.917969 21.320312 C 38.832031 21.941406 38.769531 22.574219 38.660156 23.195312 C 38.226562 25.65625 37.28125 27.921875 35.925781 30.019531 C 34.785156 31.785156 33.371094 33.300781 31.730469 34.625 C 30 36.027344 28.085938 37.113281 25.972656 37.785156 C 24.082031 38.386719 22.140625 38.851562 20.207031 39.308594 C 19.257812 39.535156 18.277344 39.640625 17.304688 39.738281 C 16.339844 39.835938 15.363281 39.855469 14.394531 39.921875 C 14.308594 39.929688 14.230469 40.027344 14.152344 40.082031 M 10.570312 9.050781 C 9.890625 9.4375 9.15625 9.75 8.542969 10.222656 C 5.375 12.671875 4.101562 15.921875 4.871094 19.828125 C 5.644531 23.78125 8.695312 26.632812 12.699219 27.300781 C 15.613281 27.789062 18.257812 27.066406 20.488281 25.140625 C 23.109375 22.871094 24.238281 19.953125 23.738281 16.523438 C 23.210938 12.941406 21.183594 10.421875 17.835938 9.023438 C 15.453125 8.03125 13.03125 8.089844 10.570312 9.050781 M 33.421875 22.90625 C 33.457031 22.773438 33.488281 22.636719 33.53125 22.503906 C 34.199219 20.367188 34.253906 18.210938 33.769531 16.03125 C 33.421875 14.476562 32.734375 13.0625 31.929688 11.699219 C 31.273438 10.589844 30.582031 9.503906 29.644531 8.609375 C 28.957031 7.957031 28.191406 7.429688 27.148438 7.535156 C 26.394531 7.613281 25.675781 8.316406 25.800781 9.019531 C 25.90625 9.613281 26.078125 10.226562 26.367188 10.75 C 27.296875 12.410156 28.210938 14.070312 28.726562 15.914062 C 29.101562 17.242188 29.296875 18.59375 28.871094 19.9375 C 28.628906 20.703125 28.253906 21.429688 27.949219 22.179688 C 27.40625 23.507812 28.464844 25.40625 29.886719 25.664062 C 31.015625 25.867188 32.515625 25.097656 32.976562 24.0625 C 33.136719 23.703125 33.257812 23.332031 33.421875 22.90625 M 20.640625 32.832031 C 21.148438 33.292969 21.765625 33.519531 22.4375 33.535156 C 24.175781 33.582031 25.511719 32.058594 25.351562 30.242188 C 25.183594 28.292969 23.023438 27.074219 21.269531 27.941406 C 19.386719 28.871094 19.058594 31.253906 20.640625 32.832031 Z M 20.640625 32.832031 "/>
<path style=" stroke:none;fill-rule:nonzero;fill:rgb(0.392157%,0.392157%,0.784314%);fill-opacity:1;" d="M 10.597656 9.039062 C 13.03125 8.089844 15.453125 8.03125 17.835938 9.023438 C 21.183594 10.421875 23.210938 12.941406 23.738281 16.523438 C 24.238281 19.953125 23.109375 22.871094 20.488281 25.140625 C 18.257812 27.066406 15.613281 27.789062 12.699219 27.300781 C 8.695312 26.632812 5.644531 23.78125 4.871094 19.828125 C 4.101562 15.921875 5.375 12.671875 8.542969 10.222656 C 9.15625 9.75 9.890625 9.4375 10.597656 9.039062 M 8.902344 13.097656 C 7.945312 14.238281 7.367188 15.542969 7.191406 17.023438 C 6.921875 19.3125 7.542969 21.316406 9.171875 22.957031 C 11.664062 25.46875 15.589844 25.746094 18.503906 23.65625 C 22.34375 20.902344 22.449219 15.136719 18.707031 12.25 C 15.6875 9.921875 11.582031 10.257812 8.902344 13.097656 Z M 8.902344 13.097656 "/>
<path style=" stroke:none;fill-rule:nonzero;fill:rgb(52.941176%,64.705882%,84.313725%);fill-opacity:1;" d="M 33.410156 22.9375 C 33.257812 23.332031 33.136719 23.703125 32.976562 24.0625 C 32.515625 25.097656 31.015625 25.867188 29.886719 25.664062 C 28.464844 25.40625 27.40625 23.507812 27.949219 22.179688 C 28.253906 21.429688 28.628906 20.703125 28.871094 19.9375 C 29.296875 18.59375 29.101562 17.242188 28.726562 15.914062 C 28.210938 14.070312 27.296875 12.410156 26.367188 10.75 C 26.078125 10.226562 25.90625 9.613281 25.800781 9.019531 C 25.675781 8.316406 26.394531 7.613281 27.148438 7.535156 C 28.191406 7.429688 28.957031 7.957031 29.644531 8.609375 C 30.582031 9.503906 31.273438 10.589844 31.929688 11.699219 C 32.734375 13.0625 33.421875 14.476562 33.769531 16.03125 C 34.253906 18.210938 34.199219 20.367188 33.53125 22.503906 C 33.488281 22.636719 33.457031 22.773438 33.410156 22.9375 Z M 33.410156 22.9375 "/>
<path style=" stroke:none;fill-rule:nonzero;fill:rgb(52.941176%,64.313725%,84.313725%);fill-opacity:1;" d="M 20.617188 32.808594 C 19.058594 31.253906 19.386719 28.871094 21.269531 27.941406 C 23.023438 27.074219 25.183594 28.292969 25.351562 30.242188 C 25.511719 32.058594 24.175781 33.582031 22.4375 33.535156 C 21.765625 33.519531 21.148438 33.292969 20.617188 32.808594 Z M 20.617188 32.808594 "/>
<path style=" stroke:none;fill-rule:nonzero;fill:rgb(98.823529%,98.823529%,99.215686%);fill-opacity:1;" d="M 8.921875 13.074219 C 11.582031 10.257812 15.6875 9.921875 18.707031 12.25 C 22.449219 15.136719 22.34375 20.902344 18.503906 23.65625 C 15.589844 25.746094 11.664062 25.46875 9.171875 22.957031 C 7.542969 21.316406 6.921875 19.3125 7.191406 17.023438 C 7.367188 15.542969 7.945312 14.238281 8.921875 13.074219 M 18.800781 19.414062 C 19.363281 17.527344 18.992188 15.859375 17.589844 14.457031 C 16.601562 13.472656 15.386719 13.066406 13.972656 13.117188 C 14.453125 14.507812 14.214844 15.515625 13.277344 16.207031 C 12.757812 16.585938 12.183594 16.738281 11.539062 16.652344 C 10.902344 16.566406 10.410156 16.230469 9.964844 15.765625 C 9.164062 17.507812 9.261719 19.152344 10.367188 20.667969 C 11.5 22.222656 13.089844 22.882812 14.996094 22.59375 C 16.851562 22.3125 18.09375 21.207031 18.800781 19.414062 Z M 18.800781 19.414062 "/>
<path style=" stroke:none;fill-rule:nonzero;fill:rgb(0.392157%,0.392157%,0.392157%);fill-opacity:1;" d="M 18.792969 19.449219 C 18.09375 21.207031 16.851562 22.3125 14.996094 22.59375 C 13.089844 22.882812 11.5 22.222656 10.367188 20.667969 C 9.261719 19.152344 9.164062 17.507812 9.964844 15.765625 C 10.410156 16.230469 10.902344 16.566406 11.539062 16.652344 C 12.183594 16.738281 12.757812 16.585938 13.277344 16.207031 C 14.214844 15.515625 14.453125 14.507812 13.972656 13.117188 C 15.386719 13.066406 16.601562 13.472656 17.589844 14.457031 C 18.992188 15.859375 19.363281 17.527344 18.792969 19.449219 Z M 18.792969 19.449219 "/>
</g>
</svg>
